<?xml version="1.0" encoding="UTF-8" standalone="no"?>
<!-- Generator: Adobe Illustrator 18.0.0, SVG Export Plug-In . SVG Version: 6.00 Build 0)  -->

<svg
   version="1.1"
   id="Capa_1"
   x="0px"
   y="0px"
   viewBox="0 0 202.423 202.423"
   style="enable-background:new 0 0 202.423 202.423;"
   xml:space="preserve"
   sodipodi:docname="faq-svgrepo-com.svg"
   inkscape:version="1.2.2 (b0a8486541, 2022-12-01)"
   xmlns:inkscape="http://www.inkscape.org/namespaces/inkscape"
   xmlns:sodipodi="http://sodipodi.sourceforge.net/DTD/sodipodi-0.dtd"
   xmlns="http://www.w3.org/2000/svg"
   xmlns:svg="http://www.w3.org/2000/svg"><defs
   id="defs41"><filter
     style="color-interpolation-filters:sRGB;"
     inkscape:label="Invert"
     id="filter205"
     x="0"
     y="0"
     width="1"
     height="1"><feColorMatrix
       type="hueRotate"
       values="180"
       result="color1"
       id="feColorMatrix201" /><feColorMatrix
       values="-1 0 0 0 1 0 -1 0 0 1 0 0 -1 0 1 -0.21 -0.72 -0.07 2 0 "
       result="color2"
       id="feColorMatrix203" /></filter></defs><sodipodi:namedview
   id="namedview39"
   pagecolor="#ffffff"
   bordercolor="#000000"
   borderopacity="0.25"
   inkscape:showpageshadow="2"
   inkscape:pageopacity="0.0"
   inkscape:pagecheckerboard="0"
   inkscape:deskcolor="#d1d1d1"
   showgrid="false"
   inkscape:zoom="3.8631973"
   inkscape:cx="101.34093"
   inkscape:cy="101.2115"
   inkscape:window-width="2560"
   inkscape:window-height="1403"
   inkscape:window-x="0"
   inkscape:window-y="0"
   inkscape:window-maximized="1"
   inkscape:current-layer="Capa_1" />
<g
   id="g6"
   style="filter:url(#filter205)">
	<path
   d="M87.416,186.643c-4.359,0-7.885,3.541-7.885,7.874c0,4.362,3.525,7.906,7.885,7.906c4.357,0,7.885-3.544,7.885-7.906   C95.301,190.184,91.774,186.643,87.416,186.643z"
   id="path2" />
	<path
   d="M101.212,0c-34.694,0-62.92,28.226-62.92,62.92c0,4.142,3.358,7.5,7.5,7.5c4.142,0,7.5-3.358,7.5-7.5   c0-26.423,21.497-47.92,47.92-47.92c26.422,0,47.918,21.497,47.918,47.92c0,26.425-21.496,47.923-47.918,47.923   c-0.259,0-0.516,0.013-0.769,0.039c-11.128,0.4-20.088,9.36-20.488,20.487c-0.026,0.253-0.039,0.509-0.039,0.769v30.922   c0,4.142,3.358,7.5,7.5,7.5c4.142,0,7.5-3.358,7.5-7.5v-30.922c0-3.471,2.824-6.295,6.296-6.295   c34.693,0,62.918-28.227,62.918-62.923C164.13,28.226,135.906,0,101.212,0z"
   id="path4" />
</g>
<g
   id="g8">
</g>
<g
   id="g10">
</g>
<g
   id="g12">
</g>
<g
   id="g14">
</g>
<g
   id="g16">
</g>
<g
   id="g18">
</g>
<g
   id="g20">
</g>
<g
   id="g22">
</g>
<g
   id="g24">
</g>
<g
   id="g26">
</g>
<g
   id="g28">
</g>
<g
   id="g30">
</g>
<g
   id="g32">
</g>
<g
   id="g34">
</g>
<g
   id="g36">
</g>
</svg>
